HIERARCHY
ROOT Hips
{
	OFFSET 0.00000 0.00000 0.00000
	CHANNELS 6 Xposition Yposition Zposition Zrotation Yrotation Xrotation 
	JOINT LHipJoint
	{
		OFFSET 0 0 0
		CHANNELS 3 Zrotation Yrotation Xrotation
		JOINT LeftHip
		{
			OFFSET 1.41261 -1.82971 0.84908
			CHANNELS 3 Zrotation Yrotation Xrotation
			JOINT LeftKnee
			{
				OFFSET 2.52554 -6.93888 0.00000
				CHANNELS 3 Zrotation Yrotation Xrotation
				JOINT LeftAnkle
				{
					OFFSET 2.56654 -7.05152 0.00000
					CHANNELS 3 Zrotation Yrotation Xrotation
					JOINT LeftToe
					{
						OFFSET 0.21698 -0.59616 1.85369
						CHANNELS 3 Zrotation Yrotation Xrotation
						End Site
						{
							OFFSET 0.00000 -0.00000 0.97832
						}
					}
				}
			}
		}
	}
	JOINT RHipJoint
	{
		OFFSET 0 0 0
		CHANNELS 3 Zrotation Yrotation Xrotation
		JOINT RightHip
		{
			OFFSET -1.12808 -1.82971 0.84907
			CHANNELS 3 Zrotation Yrotation Xrotation
			JOINT RightKnee
			{
				OFFSET -2.53425 -6.96280 0.00000
				CHANNELS 3 Zrotation Yrotation Xrotation
				JOINT RightAnkle
				{
					OFFSET -2.58413 -7.09983 0.00000
					CHANNELS 3 Zrotation Yrotation Xrotation
					JOINT RightToe
					{
						OFFSET -0.26437 -0.72636 1.92241
						CHANNELS 3 Zrotation Yrotation Xrotation
						End Site
						{
							OFFSET -0.00000 -0.00000 1.02667
						}
					}
				}
			}
		}
	}
	JOINT lowerback
	{
		OFFSET 0 0 0
		CHANNELS 3 Zrotation Yrotation Xrotation
		JOINT Chest
		{
			OFFSET -0.02096 2.02288 -0.14752
			CHANNELS 3 Zrotation Yrotation Xrotation
			JOINT Chest2
			{
				OFFSET 0.03477 2.03136 -0.02358
				CHANNELS 3 Zrotation Yrotation Xrotation
				JOINT lowerneck
				{
					OFFSET 0 0 0
					CHANNELS 3 Zrotation Yrotation Xrotation
					JOINT Neck
					{
						OFFSET 0.00174 1.74359 0.19336
						CHANNELS 3 Zrotation Yrotation Xrotation
						JOINT Head
						{
							OFFSET -0.03054 1.76140 -0.17751
							CHANNELS 3 Zrotation Yrotation Xrotation
							End Site
							{
								OFFSET -0.00863 1.77239 -0.08120
							}
						}
					}
				}
				JOINT LeftCollar
				{
					OFFSET 0 0 0
					CHANNELS 3 Zrotation Yrotation Xrotation
					JOINT LeftShoulder
					{
						OFFSET 3.68685 1.32687 -0.67367
CHANNELS 3 Zrotation Xrotation Yrotation
						JOINT LeftElbow
						{
OFFSET 0 -4.764680 -0.000000
CHANNELS 3 Zrotation Xrotation Yrotation
							JOINT LeftWrist
							{
OFFSET 0 -3.527120 -0.000000
CHANNELS 3 Zrotation Xrotation Yrotation
								JOINT lhand
								{
									OFFSET 0 0 0
CHANNELS 3 Zrotation Xrotation Yrotation
									JOINT LFingers
									{
OFFSET 0 -0.859560 -0.000000
CHANNELS 3 Zrotation Xrotation Yrotation
										End Site
										{
OFFSET 0 -0.693000 -0.000000
										}
									}
								}
								JOINT LThumb
								{
OFFSET 0 0.000000 0.000000
CHANNELS 3 Zrotation Xrotation Yrotation
									End Site
									{
OFFSET 0 -0.703580 0.703580
									}
								}
							}
						}
					}
				}
				JOINT RightCollar
				{
					OFFSET 0 0 0
					CHANNELS 3 Zrotation Yrotation Xrotation
					JOINT RightShoulder
					{
						OFFSET -3.31304 1.28268 -0.97357
CHANNELS 3 Zrotation Xrotation Yrotation
						JOINT RightElbow
						{
OFFSET 0 -4.905770 -0.000000
CHANNELS 3 Zrotation Xrotation Yrotation
							JOINT RightWrist
							{
OFFSET 0 -3.426920 0.000000
CHANNELS 3 Zrotation Xrotation Yrotation
								JOINT rhand
								{
									OFFSET 0 0 0
CHANNELS 3 Zrotation Xrotation Yrotation
									JOINT RFingers
									{
OFFSET 0 -0.740960 -0.000000
CHANNELS 3 Zrotation Xrotation Yrotation
										End Site
										{
OFFSET 0 -0.597380 -0.000000
										}
									}
								}
								JOINT RThumb
								{
OFFSET 0 0.000000 0.000000
CHANNELS 3 Zrotation Xrotation Yrotation
									End Site
									{
OFFSET 0 -0.606500 0.606500
									}
								}
							}
						}
					}
				}
			}
		}
	}
}
MOTION
Frames: 11
Frame Time: 0.008333333333333333
-1.199722 17.857852 -3.377585 176.935781 159.748603 180.029589 0.000000 0.000000 0.000000 -9.571718 -6.653223 -8.976094 3.712832 11.759781 34.898263 0.847582 -7.634253 -16.492305 2.122060 -9.115337 -26.157058 0.000000 0.000000 0.000000 20.700013 0.703081 -3.086881 -1.218635 -7.002127 19.721748 -0.816260 1.394244 -16.661656 -0.194961 -2.843288 7.842687 -1.374395 -0.822434 9.924502 2.410535 -1.124034 1.977404 3.424259 -0.530848 -3.429600 -1.239618 -0.250896 -12.737017 -0.492128 0.328483 32.741341 0.089315 -0.007206 13.066611 0.000000 0.000000 0.000000 4.366620 3.908228 -5.701263 31.316327 -41.986815 12.284011 11.367941 -10.627890 13.742499 0.000000 0.000000 0.000000 -7.125000 0.000000 0.000000 -10.971088 16.137920 -7.633199 0.000000 0.000000 0.000000 -4.293545 -1.132112 -7.631861 -13.175225 -21.542438 -2.517904 -9.744508 7.688643 37.233598 0.000000 0.000000 0.000000 7.125000 0.000000 0.000000 31.387127 64.973834 -15.880302
-1.133063 17.874559 -3.398498 177.187616 161.692154 180.297130 0.000000 0.000000 0.000000 -9.990134 -9.194298 -7.064784 3.074042 10.807341 31.640051 0.870544 -8.068162 -16.748672 1.966807 -8.795579 -25.158636 0.000000 0.000000 0.000000 20.139989 1.465784 -2.997224 -1.181314 -6.897869 19.413106 -0.787359 2.446957 -16.117555 -0.218429 -3.007845 8.300553 -1.290887 -0.718756 9.763457 2.350120 -0.980773 1.843163 3.294305 -0.459360 -3.492444 -1.061684 -0.107764 -12.684706 -0.719628 0.541428 32.473172 -0.000442 0.073842 12.941789 0.000000 0.000000 0.000000 4.352020 3.950563 -7.779743 33.183836 -43.466027 13.550098 10.862939 -10.236779 14.624851 0.000000 0.000000 0.000000 -7.125000 0.000000 0.000000 -11.294040 15.292181 -8.076768 0.000000 0.000000 0.000000 -4.522230 -0.896458 -8.805552 -12.913536 -21.160368 -2.422004 -10.440502 8.761202 37.420798 0.000000 0.000000 0.000000 7.125000 0.000000 0.000000 30.890231 65.324964 -15.853577
-1.059950 17.884327 -3.414376 177.409142 163.573636 180.551451 0.000000 0.000000 0.000000 -10.487834 -11.464611 -5.093664 2.465131 9.772653 28.244906 0.788265 -8.064478 -15.972421 2.072529 -9.015031 -25.842511 0.000000 0.000000 0.000000 19.556213 2.109294 -2.944148 -1.151412 -6.813174 19.162969 -0.766839 3.573558 -15.723411 -0.243746 -3.176870 8.771678 -1.287093 -0.614200 9.490168 2.360951 -0.841670 1.753908 3.281928 -0.390975 -3.442889 -1.037632 -0.018973 -12.676261 -0.906428 0.700111 32.086267 -0.054812 0.118329 12.778326 0.000000 0.000000 0.000000 4.217795 3.974669 -9.751405 34.987024 -44.802023 14.804568 10.564970 -9.897209 15.141713 0.000000 0.000000 0.000000 -7.125000 0.000000 0.000000 -11.484038 14.798845 -8.341847 0.000000 0.000000 0.000000 -4.777683 -0.575422 -9.582310 -12.880316 -21.111570 -2.410038 -11.791676 9.744798 38.005420 0.000000 0.000000 0.000000 7.125000 0.000000 0.000000 30.213043 66.198607 -16.078347
-0.985519 17.887018 -3.429979 177.630885 165.339900 180.755885 0.000000 0.000000 0.000000 -10.993443 -13.008287 -3.407118 1.973338 8.803816 25.187878 0.663091 -7.841915 -14.696438 2.291173 -9.447801 -27.206555 0.000000 0.000000 0.000000 18.949812 2.723224 -2.946271 -1.145570 -6.796459 19.113747 -0.758043 4.711695 -15.539684 -0.241182 -3.160632 8.726346 -1.435797 -0.551867 9.224441 2.418071 -0.771511 1.672711 3.413414 -0.355021 -3.381434 -1.009494 0.070792 -12.611321 -1.092852 0.855123 31.627496 -0.109704 0.163310 12.575447 0.000000 0.000000 0.000000 4.030274 4.067687 -11.487693 36.612732 -45.926481 15.962310 10.495304 -9.565253 15.316496 0.000000 0.000000 0.000000 -7.125000 0.000000 0.000000 -11.527327 14.630148 -8.417141 0.000000 0.000000 0.000000 -5.242232 -0.384895 -10.546618 -12.697338 -20.841962 -2.344571 -11.203200 10.596912 38.452310 0.000000 0.000000 0.000000 7.125000 0.000000 0.000000 31.452514 66.398545 -16.934316
-0.910615 17.882785 -3.448118 177.809072 166.956900 180.956120 0.000000 0.000000 0.000000 -11.343869 -13.471600 -2.444658 1.711912 8.238113 23.439666 0.631921 -7.589655 -14.336598 2.518455 -9.862945 -28.541395 0.000000 0.000000 0.000000 18.377834 3.296936 -3.123870 -1.153306 -6.818655 19.179196 -0.719530 5.729724 -15.119299 -0.232252 -3.101688 8.561964 -1.632462 -0.559467 8.996417 2.479383 -0.797759 1.543422 3.589393 -0.364943 -3.383507 -0.937920 0.204290 -12.539897 -1.161789 1.024047 31.203197 -0.125187 0.235076 12.386922 0.000000 0.000000 0.000000 3.898318 4.216210 -12.932935 38.040031 -46.861209 16.995962 10.161505 -9.190792 15.359471 0.000000 0.000000 0.000000 -7.125000 0.000000 0.000000 -11.749798 14.610868 -8.591590 0.000000 0.000000 0.000000 -5.684686 -0.241179 -11.738323 -12.447036 -20.471485 -2.256315 -10.060889 11.124715 38.273709 0.000000 0.000000 0.000000 7.125000 0.000000 0.000000 32.424326 65.920282 -17.155001
-0.835879 17.876520 -3.468515 177.898117 168.436679 181.061903 0.000000 0.000000 0.000000 -11.454572 -12.481527 -2.147811 1.666049 8.132717 23.117918 0.656947 -7.795947 -14.628165 3.092036 -10.831845 -31.726252 0.000000 0.000000 0.000000 17.941420 3.878269 -3.279519 -1.163797 -6.848533 19.267341 -0.696404 6.585361 -14.912096 -0.230102 -3.087373 8.522075 -1.787151 -0.612051 8.889063 2.553540 -0.879447 1.464340 3.763139 -0.402905 -3.396313 -0.878490 0.350501 -12.625598 -1.140863 1.187826 30.767686 -0.104958 0.314381 12.228021 0.000000 0.000000 0.000000 3.791559 4.259966 -14.224169 39.244363 -47.613824 17.879706 9.890854 -8.945824 15.227206 0.000000 0.000000 0.000000 -7.125000 0.000000 0.000000 -11.933802 14.760518 -8.693205 0.000000 0.000000 0.000000 -6.010911 -0.292979 -12.916694 -12.215441 -20.126875 -2.175910 -9.825150 11.536576 37.881611 0.000000 0.000000 0.000000 7.125000 0.000000 0.000000 32.144471 65.531286 -16.710140
-0.760090 17.874920 -3.493716 177.993885 169.780820 181.051304 0.000000 0.000000 0.000000 -11.493684 -10.550430 -1.928271 1.569316 7.904268 22.423845 0.673088 -7.946099 -14.816809 3.623633 -11.639971 -34.472540 0.000000 0.000000 0.000000 17.532628 4.465670 -3.311298 -1.175968 -6.882895 19.368996 -0.685342 7.279439 -14.858169 -0.236399 -3.129174 8.638535 -1.965704 -0.686849 8.977072 2.632699 -0.994393 1.476416 3.962512 -0.457812 -3.419296 -0.838035 0.483832 -12.933092 -1.158056 1.353387 30.294706 -0.095061 0.386950 12.102326 0.000000 0.000000 0.000000 3.603799 4.047408 -15.275115 39.969738 -48.051671 18.416739 9.671232 -8.685380 15.211384 0.000000 0.000000 0.000000 -7.125000 0.000000 0.000000 -12.081059 14.791084 -8.797603 0.000000 0.000000 0.000000 -6.213217 -0.623227 -14.256987 -12.029924 -19.849406 -2.112448 -10.180397 12.286784 37.581958 0.000000 0.000000 0.000000 7.125000 0.000000 0.000000 31.374476 65.384974 -16.168516
-0.678098 17.877003 -3.521272 178.208447 170.884860 181.088980 0.000000 0.000000 0.000000 -11.729182 -8.348052 -1.663243 1.383117 7.440356 21.027341 0.679294 -7.719054 -14.848512 3.665039 -11.699842 -34.679460 0.000000 0.000000 0.000000 16.959217 4.985185 -3.358810 -1.183458 -6.904050 19.431438 -0.655446 7.893013 -14.627544 -0.236083 -3.126673 8.631709 -2.237587 -0.824586 9.053228 2.642270 -1.204658 1.424472 4.154196 -0.557353 -3.492112 -0.546316 0.588281 -13.002501 -1.409640 1.479284 29.750297 -0.222479 0.443228 11.904393 0.000000 0.000000 0.000000 3.382020 3.940827 -16.015204 40.286777 -48.238805 18.652888 9.352878 -8.227458 15.349422 0.000000 0.000000 0.000000 -7.125000 0.000000 0.000000 -12.290225 14.675832 -8.988296 0.000000 0.000000 0.000000 -6.247660 -0.850244 -15.594742 -11.951783 -19.732230 -2.085931 -10.590403 12.964997 37.643857 0.000000 0.000000 0.000000 7.125000 0.000000 0.000000 31.020652 65.552556 -16.088499
-0.590011 17.881488 -3.550262 178.557429 171.732619 181.224302 0.000000 0.000000 0.000000 -12.287867 -6.269679 -1.518045 1.212003 6.981675 19.661986 0.690642 -7.287788 -14.914142 3.325435 -11.200547 -32.963479 0.000000 0.000000 0.000000 16.187366 5.498966 -3.455742 -1.183107 -6.902985 19.428255 -0.635231 8.305135 -14.485588 -0.242813 -3.170687 8.754342 -2.589195 -1.026242 9.078711 2.573673 -1.510324 1.283062 4.321184 -0.700900 -3.619195 -0.189495 0.697034 -12.852107 -1.628180 1.581204 29.141884 -0.351630 0.502266 11.639375 0.000000 0.000000 0.000000 3.220236 4.075911 -16.649956 40.427113 -48.320874 18.757610 8.976738 -7.629227 15.290163 0.000000 0.000000 0.000000 -7.125000 0.000000 0.000000 -12.543029 14.758843 -9.159553 0.000000 0.000000 0.000000 -6.153482 -0.865547 -16.534027 -11.970999 -19.761116 -2.092488 -10.782590 13.082640 37.921003 0.000000 0.000000 0.000000 7.125000 0.000000 0.000000 31.181649 65.837424 -16.381362
-0.494326 17.884901 -3.581375 178.919666 172.449618 181.366591 0.000000 0.000000 0.000000 -13.012777 -4.311492 -1.418246 1.063398 6.553123 18.399015 0.698620 -6.647536 -14.940269 2.983660 -10.666295 -31.164912 0.000000 0.000000 0.000000 15.348149 5.912158 -3.587260 -1.179153 -6.891949 19.395566 -0.618520 8.558252 -14.358657 -0.228900 -3.078613 8.497826 -2.799222 -1.202808 9.121366 2.469370 -1.771079 1.165513 4.365393 -0.823933 -3.738104 -0.112995 0.772414 -12.808380 -1.488774 1.602990 28.501989 -0.309953 0.539111 11.381173 0.000000 0.000000 0.000000 3.081181 4.154642 -17.380843 40.326510 -48.262062 18.682539 8.474289 -6.883689 15.080769 0.000000 0.000000 0.000000 -7.125000 0.000000 0.000000 -12.885071 14.996588 -9.355126 0.000000 0.000000 0.000000 -5.934755 -0.793317 -17.248315 -12.122234 -19.987591 -2.143982 -10.950237 12.658122 37.981641 0.000000 0.000000 0.000000 7.125000 0.000000 0.000000 31.083647 65.935791 -16.394898
-0.390541 17.884258 -3.613783 179.228795 173.110279 181.520100 0.000000 0.000000 0.000000 -13.782150 -2.635615 -1.194613 0.904990 6.059301 16.957483 0.697027 -5.839735 -14.881351 2.777357 -10.324987 -30.036304 0.000000 0.000000 0.000000 14.523477 6.268777 -3.799384 -1.178114 -6.889012 19.386860 -0.595955 8.855305 -14.185037 -0.212387 -2.966720 8.186204 -2.901239 -1.378890 9.096925 2.384519 -2.018810 1.095589 4.363696 -0.944330 -3.773411 -0.020878 0.844554 -12.843545 -1.408824 1.635244 27.768014 -0.291425 0.575255 11.107398 0.000000 0.000000 0.000000 2.861590 4.178796 -18.018790 40.014759 -48.078433 18.450282 7.881615 -6.084759 14.789517 0.000000 0.000000 0.000000 -7.125000 0.000000 0.000000 -13.291718 15.318011 -9.572790 0.000000 0.000000 0.000000 -5.673597 -0.639502 -17.544999 -12.401566 -20.403965 -2.240504 -11.061066 11.813579 38.053545 0.000000 0.000000 0.000000 7.125000 0.000000 0.000000 31.061860 66.027281 -16.446905
